# xmcd
#
# Track frame offsets: 
#        150
#        17088
#        41959
#        58813
#        76934
#        97393
#        118659
#        139429
#        157264
#        172060
#        192990
#        206231
#        224382
#        240511
#
# Disc length: 3441 seconds
#
# Revision: 0
# Processed by: cddbd v1.5.2PL0 Copyright (c) Steve Scherf et al.
# Submitted via: ExactAudioCopy v0.95b4
#
DISCID=df0d6f0e
DTITLE=Friend Bourbon - Boogie Blend Blues
DYEAR=2007
DGENRE=Blues
TTITLE0=Go Ahead
TTITLE1=Stuck in the Mud
TTITLE2=Blue Picasso Night
TTITLE3=Burnerby Square
TTITLE4=Turkey in the Corn
TTITLE5=Morning Train
TTITLE6="Fry" Day
TTITLE7=Poontang
TTITLE8=Same Old World
TTITLE9=Lushhead
TTITLE10=Shoeshine Boy
TTITLE11=Babylon
TTITLE12=7 Months
TTITLE13=Streamline Baby
EXTD=
EXTT0=
EXTT1=
EXTT2=
EXTT3=
EXTT4=
EXTT5=
EXTT6=
EXTT7=
EXTT8=
EXTT9=
EXTT10=
EXTT11=
EXTT12=
EXTT13=
PLAYORDER=
